<svg width="213" height="37" viewBox="0 0 213 37" fill="none" xmlns="http://www.w3.org/2000/svg">
<path d="M50.0726 8.59573V20.8945C50.0726 22.2421 50.4238 23.2765 51.126 23.9977C51.8283 24.7 52.8152 25.0511 54.0868 25.0511C55.3775 25.0511 56.3739 24.7 57.0761 23.9977C57.7784 23.2765 58.1295 22.2421 58.1295 20.8945V8.59573H62.1437V20.8661C62.1437 22.5553 61.7736 23.9882 61.0334 25.165C60.3122 26.3227 59.3347 27.1958 58.101 27.7842C56.8863 28.3725 55.5293 28.6667 54.0299 28.6667C52.5495 28.6667 51.2019 28.3725 49.9872 27.7842C48.7915 27.1958 47.8425 26.3227 47.1403 25.165C46.438 23.9882 46.0869 22.5553 46.0869 20.8661V8.59573H50.0726Z" fill="black"/>
<path d="M80.4856 14.7451C80.4856 15.808 80.2294 16.8044 79.7169 17.7344C79.2235 18.6644 78.4358 19.4141 77.354 19.9835C76.2911 20.5529 74.9436 20.8376 73.3113 20.8376H69.9804V28.4674H65.9947V8.59573H73.3113C74.8487 8.59573 76.1583 8.86145 77.2401 9.39288C78.3219 9.92431 79.1286 10.655 79.66 11.585C80.2104 12.515 80.4856 13.5684 80.4856 14.7451ZM73.1405 17.6206C74.2413 17.6206 75.0574 17.3738 75.5889 16.8804C76.1203 16.3679 76.386 15.6562 76.386 14.7451C76.386 12.8092 75.3042 11.8413 73.1405 11.8413H69.9804V17.6206H73.1405Z" fill="black"/>
<path d="M87.3012 25.3073H93.8492V28.4674H83.3155V8.59573H87.3012V25.3073Z" fill="black"/>
<path d="M105.607 28.6667C103.747 28.6667 102.038 28.2302 100.482 27.3571C98.9258 26.4841 97.6921 25.2789 96.7811 23.7415C95.8701 22.1852 95.4145 20.4295 95.4145 18.4746C95.4145 16.5387 95.8701 14.8021 96.7811 13.2647C97.6921 11.7084 98.9258 10.4937 100.482 9.62063C102.038 8.74757 103.747 8.31104 105.607 8.31104C107.486 8.31104 109.194 8.74757 110.731 9.62063C112.287 10.4937 113.512 11.7084 114.404 13.2647C115.315 14.8021 115.77 16.5387 115.77 18.4746C115.77 20.4295 115.315 22.1852 114.404 23.7415C113.512 25.2789 112.287 26.4841 110.731 27.3571C109.175 28.2302 107.467 28.6667 105.607 28.6667ZM105.607 25.108C106.802 25.108 107.856 24.8423 108.767 24.3109C109.678 23.7605 110.389 22.9823 110.902 21.9764C111.414 20.9705 111.671 19.8032 111.671 18.4746C111.671 17.1461 111.414 15.9883 110.902 15.0014C110.389 13.9954 109.678 13.2268 108.767 12.6953C107.856 12.1639 106.802 11.8982 105.607 11.8982C104.411 11.8982 103.348 12.1639 102.418 12.6953C101.507 13.2268 100.795 13.9954 100.283 15.0014C99.7704 15.9883 99.5141 17.1461 99.5141 18.4746C99.5141 19.8032 99.7704 20.9705 100.283 21.9764C100.795 22.9823 101.507 23.7605 102.418 24.3109C103.348 24.8423 104.411 25.108 105.607 25.108Z" fill="black"/>
<path d="M130.92 24.681H123.006L121.696 28.4674H117.511L124.657 8.56726H129.298L136.444 28.4674H132.23L130.92 24.681ZM129.839 21.4924L126.963 13.1793L124.088 21.4924H129.839Z" fill="black"/>
<path d="M146.061 8.59573C148.149 8.59573 149.98 9.00379 151.556 9.81992C153.15 10.636 154.374 11.8033 155.228 13.3217C156.101 14.8211 156.538 16.5672 156.538 18.5601C156.538 20.5529 156.101 22.299 155.228 23.7984C154.374 25.2789 153.15 26.4271 151.556 27.2432C149.98 28.0594 148.149 28.4674 146.061 28.4674H139.115V8.59573H146.061ZM145.919 25.0796C148.007 25.0796 149.62 24.5102 150.759 23.3714C151.897 22.2326 152.467 20.6288 152.467 18.5601C152.467 16.4913 151.897 14.878 150.759 13.7202C149.62 12.5435 148.007 11.9551 145.919 11.9551H143.1V25.0796H145.919Z" fill="black"/>
<path d="M171.706 24.681H163.792L162.482 28.4674H158.297L165.443 8.56726H170.084L177.229 28.4674H173.016L171.706 24.681ZM170.624 21.4924L167.749 13.1793L164.874 21.4924H170.624Z" fill="black"/>
<path d="M190.149 28.4674L185.765 20.7237H183.886V28.4674H179.9V8.59573H187.359C188.897 8.59573 190.206 8.87093 191.288 9.42134C192.37 9.95278 193.177 10.6835 193.708 11.6135C194.259 12.5245 194.534 13.5494 194.534 14.6882C194.534 15.9978 194.154 17.184 193.395 18.2469C192.636 19.2908 191.507 20.012 190.007 20.4106L194.762 28.4674H190.149ZM183.886 17.7344H187.217C188.299 17.7344 189.106 17.4782 189.637 16.9658C190.168 16.4343 190.434 15.7036 190.434 14.7736C190.434 13.8626 190.168 13.1603 189.637 12.6669C189.106 12.1544 188.299 11.8982 187.217 11.8982H183.886V17.7344Z" fill="black"/>
<path d="M208.388 28.4674L204.003 20.7237H202.124V28.4674H198.139V8.59573H205.598C207.135 8.59573 208.445 8.87093 209.527 9.42134C210.608 9.95278 211.415 10.6835 211.946 11.6135C212.497 12.5245 212.772 13.5494 212.772 14.6882C212.772 15.9978 212.392 17.184 211.633 18.2469C210.874 19.2908 209.745 20.012 208.245 20.4106L213 28.4674H208.388ZM202.124 17.7344H205.455C206.537 17.7344 207.344 17.4782 207.875 16.9658C208.407 16.4343 208.672 15.7036 208.672 14.7736C208.672 13.8626 208.407 13.1603 207.875 12.6669C207.344 12.1544 206.537 11.8982 205.455 11.8982H202.124V17.7344Z" fill="black"/>
<path d="M17.4616 0.0364563C17.675 0.0208931 17.8891 0.0109753 18.1032 0.00685563C23.0323 -0.126653 27.8124 1.6944 31.3893 5.06849C34.9325 8.46494 36.9968 13.4421 37.0689 18.3164C37.1119 23.1472 35.2471 27.8023 31.8759 31.2813C28.3588 34.8682 23.5464 36.7163 18.5437 36.7731L18.5421 31.5431C24.0767 31.3452 28.3558 28.6427 30.6373 23.5987C31.2113 22.1913 31.6633 20.6293 31.7592 19.1087C31.9687 15.7933 30.6557 12.1382 28.4862 9.63737C26.1756 7.01932 22.9148 5.41973 19.4185 5.19002C16.1355 4.94955 12.4343 6.23131 9.97171 8.38705C6.9274 11.0525 5.5522 14.4086 5.26058 18.3525L0 18.3516C0.214107 8.32205 7.40856 0.791502 17.4616 0.0364563Z" fill="black"/>
<path d="M12.1504 13.4679L23.4397 13.4691V24.7697L20.5689 24.7609C18.4792 24.7571 16.7027 24.7075 15.0681 26.3099C13.2769 28.0648 13.445 30.0847 13.4473 32.355L13.4542 36.0633L12.3069 35.702C11.6002 35.4408 10.908 35.1425 10.2326 34.8082C5.30817 32.3476 2.40889 28.5188 0.703708 23.4097L4.29365 23.411C6.7954 23.4096 8.38931 23.5553 10.4229 21.6621C12.6223 19.6151 12.1442 16.3637 12.1504 13.4679Z" fill="black"/>
</svg>
