<svg width="14" height="14" viewBox="0 0 14 14" fill="none" xmlns="http://www.w3.org/2000/svg">
<g clip-path="url(#clip0_207_1888)">
<path d="M4.08319 10.5002C3.35535 10.5002 2.65732 10.2236 2.14266 9.73135C1.628 9.23907 1.33887 8.57139 1.33887 7.8752C1.33887 7.179 1.628 6.51132 2.14266 6.01904C2.65732 5.52676 3.35535 5.2502 4.08319 5.2502C4.25508 4.48438 4.75796 3.81139 5.48119 3.37928C5.8393 3.16532 6.24073 3.01693 6.66255 2.94259C7.08438 2.86826 7.51834 2.86942 7.93967 2.94603C8.36099 3.02263 8.76142 3.17317 9.1181 3.38906C9.47479 3.60494 9.78073 3.88194 10.0185 4.20424C10.2562 4.52653 10.4211 4.88782 10.5037 5.26746C10.5863 5.6471 10.585 6.03767 10.4999 6.41686H11.0832C11.6247 6.41686 12.144 6.63197 12.5269 7.01485C12.9097 7.39774 13.1249 7.91704 13.1249 8.45853C13.1249 9.00001 12.9097 9.51932 12.5269 9.90221C12.144 10.2851 11.6247 10.5002 11.0832 10.5002H10.4999" stroke="white" stroke-linecap="round" stroke-linejoin="round"/>
<path d="M5.25 8.75L7 7L8.75 8.75" stroke="white" stroke-linecap="round" stroke-linejoin="round"/>
<path d="M7 7V12.25" stroke="white" stroke-linecap="round" stroke-linejoin="round"/>
</g>
<defs>
<clipPath id="clip0_207_1888">
<rect width="14" height="14" fill="white"/>
</clipPath>
</defs>
</svg>
